<svg width="23" height="21" viewBox="0 0 23 21" fill="currentColor" xmlns="http://www.w3.org/2000/svg">
<circle cx="19" cy="4" r="4" fill="#E94057"/>
<path d="M6.5 1C8.24772 1 9.83274 1.69184 11 2.8125C11.7401 2.10197 12.6482 1.56435 13.6592 1.26562C13.2385 2.08575 13 3.01488 13 4C13 7.31371 15.6863 10 19 10C20.0113 10 20.9629 9.74753 21.7988 9.30566C21.268 11.7282 19.7452 13.9222 18.0234 15.6611C15.8727 17.8331 13.2422 19.472 11.3154 20.1123C11.1107 20.1803 10.8893 20.1803 10.6846 20.1123C8.75781 19.472 6.12725 17.8331 3.97656 15.6611C1.83576 13.4991 0 10.6339 0 7.5C0 3.91017 2.91015 1 6.5 1Z"/>
</svg>
