<svg width="23" height="22" viewBox="0 0 23 22" fill="currentColor" xmlns="http://www.w3.org/2000/svg">
<path d="M11 0C12.3478 0 13.6387 0.242961 14.832 0.686523C13.7032 1.77752 13 3.30613 13 5C13 8.31371 15.6863 11 19 11C20.0804 11 21.0931 10.7127 21.9688 10.2129C21.9871 10.473 22 10.7353 22 11C22 17.0751 17.0751 22 11 22H1C0.447715 22 0 21.5523 0 21V11C0 4.92487 4.92487 0 11 0Z"/>
<path d="M15 11C15.5523 11 16 11.4477 16 12C16 12.5523 15.5523 13 15 13H6C5.44772 13 5 12.5523 5 12C5 11.4477 5.44772 11 6 11H15Z" fill="white"/>
<path d="M11 15C11.5523 15 12 15.4477 12 16C12 16.5523 11.5523 17 11 17H6C5.44772 17 5 16.5523 5 16C5 15.4477 5.44772 15 6 15H11Z" fill="white"/>
<circle cx="19" cy="5" r="4" fill="#E94057"/>
<path d="M13.3428 7C13.6063 7.74539 14.0126 8.42285 14.5293 9H6C5.44772 9 5 8.55228 5 8C5 7.44772 5.44772 7 6 7H13.3428Z" fill="white"/>
</svg>
